<svg width="120" height="120" viewBox="-64 -64 128 128" xmlns="http://www.w3.org/2000/svg">
  <circle cx="0" cy="0" r="60" fill="none" stroke="#111" stroke-width="1" opacity="0.18"/>
  <line x1="0" y1="0" x2="0" y2="-44" stroke="#111" stroke-width="1.8" opacity="0.5"/>
  <line x1="0" y1="0" x2="38" y2="-22" stroke="#111" stroke-width="1.8" opacity="0.5"/>
  <line x1="0" y1="0" x2="38" y2="22" stroke="#111" stroke-width="1.8" opacity="0.5"/>
  <line x1="0" y1="0" x2="0" y2="44" stroke="#111" stroke-width="1.8" opacity="0.5"/>
  <line x1="0" y1="0" x2="-38" y2="22" stroke="#111" stroke-width="1.8" opacity="0.5"/>
  <line x1="0" y1="0" x2="-38" y2="-22" stroke="#111" stroke-width="1.8" opacity="0.5"/>
  <polygon points="0,-44 38,-22 38,22 0,44 -38,22 -38,-22" fill="none" stroke="#111" stroke-width="1.4" opacity="0.3"/>
  <line x1="0" y1="-44" x2="38" y2="22" stroke="#111" stroke-width="1" opacity="0.18"/>
  <line x1="38" y1="-22" x2="-38" y2="22" stroke="#111" stroke-width="1" opacity="0.18"/>
  <line x1="38" y1="-22" x2="0" y2="44" stroke="#111" stroke-width="1" opacity="0.18"/>
  <circle cx="0" cy="-44" r="5" fill="none" stroke="#111" stroke-width="1.6"/>
  <circle cx="0" cy="-44" r="2" fill="#111"/>
  <circle cx="38" cy="-22" r="5" fill="none" stroke="#111" stroke-width="1.6"/>
  <circle cx="38" cy="-22" r="2" fill="#111"/>
  <circle cx="38" cy="22" r="5" fill="none" stroke="#111" stroke-width="1.6"/>
  <circle cx="38" cy="22" r="2" fill="#111"/>
  <circle cx="0" cy="44" r="5" fill="none" stroke="#111" stroke-width="1.6"/>
  <circle cx="0" cy="44" r="2" fill="#111"/>
  <circle cx="-38" cy="22" r="5" fill="none" stroke="#111" stroke-width="1.6"/>
  <circle cx="-38" cy="22" r="2" fill="#111"/>
  <circle cx="-38" cy="-22" r="5" fill="none" stroke="#111" stroke-width="1.6"/>
  <circle cx="-38" cy="-22" r="2" fill="#111"/>
  <circle cx="0" cy="0" r="8" fill="none" stroke="#111" stroke-width="2"/>
  <circle cx="0" cy="0" r="3" fill="#111"/>
</svg>
